#!OML:ASF E:/inclinewalkrobotboard/Project1/Captureday1/Session1/subject1.ASF
:FULLY-SPECIFIED
:DEGREES
63
root 0 0 0 -1.6580712403462572 -0.2620561090877156 0.37387207920984045
lowerback 8.988098952124664 -1.4005696372510092 -1.867892010989783
upperback 0.11698090590183938 -2.048297083097875 1.571974187614541
thorax -4.854081660463306 -0.9653653201156727 2.9669520154533298
lowerneck -17.953567185425147 -1.8985964062801575 -1.8461272911897635
upperneck 16.00018997177559 -1.953541581896187 -0.895660087444117
head 7.797115536947155 -1.1373465750248468 -0.2524718031729563
rclavicle 2.1091433029561773E-15 -4.390036891565188E-17
rhumerus -33.70284079246515 -30.35900059988743 -81.58524947315196
rradius 15.641330867772957
rwrist 16.210627973591897
rhand -19.956461024612054 25.74377212772822
rfingers 7.125019999999986
rthumb 6.413852140718014 -4.361668803686797
lclavicle 1.6674073098752686E-15 -8.657157628633899E-16
lhumerus -31.621542411447425 -3.822001516399901 80.24607497216701
lradius 35.39101968056025
lwrist 12.48066513139328
lhand -29.080486456941657 27.05387325832404
lfingers 7.125020000000006
lthumb -2.47412850372376 57.134753221174165
rfemur -20.133762148666765 4.556828147088324 24.115017414382756
rtibia 38.00115959129958
rfoot -8.108563676454144 -8.380729959473967
rtoes 2.100200154793628
lfemur 6.400386764577738 -5.833326755742452 -23.997185531397562
ltibia 27.656972956353652
lfoot -14.271163764326902 -0.6696140727986202
ltoes -5.93732088126017
64
root 0 0 0 -1.704876677353084 -0.3490513737903398 0.12682349465269738
lowerback 9.477194427362374 -1.4057235669377492 -1.711990933142909
upperback 0.12611179143103277 -2.018663885886994 1.6411462175837004
thorax -5.120512143941327 -0.9583848448904821 2.933901688659811
lowerneck -17.969297750605968 -1.8805011398811304 -1.6173291139422878
upperneck 16.019973214880753 -1.916707146363161 -1.2044318782607693
head 7.836660021967645 -1.1291272204749752 -0.38956861763524203
rclavicle 1.800867418847816E-15 2.510946120918944E-17
rhumerus -33.57452946815523 -30.387686741505007 -81.48400389181678
rradius 15.862384741921339
rwrist 16.33382134686782
rhand -19.97452364709372 25.706741428773
rfingers 7.125019999999986
rthumb 6.397032778835927 -4.398254297066643
lclavicle 1.5931122721365548E-15 -7.787464152043342E-16
lhumerus -31.38692835198207 -3.6868841225209357 80.69007715382402
lradius 34.74468289502719
lwrist 11.942512622170781
lhand -28.939784218132807 26.86407121628466
lfingers 7.125020000000009
lthumb -2.333104172095002 56.92355207402742
rfemur -19.140025619170974 4.649702103717701 24.531129808728227
rtibia 38.08932984726188
rfoot -8.223285013690898 -8.148179821296651
rtoes 2.4227892463608107
lfemur 4.402001725099393 -4.925108669465002 -23.35728517919766
ltibia 29.760469381697163
lfoot -12.487624791247558 -1.752053169894404
ltoes -5.836871854028054
65
root 0 0 0 -1.8921401714320916 -0.5345750116133487 0.021911381726605672
lowerback 9.943819492892814 -1.3811997953568858 -1.657903452262688
upperback 0.12547074371722916 -1.967110736767107 1.6863775267225178
thorax -5.381253796403941 -0.9353065780376915 2.9375725852508143
lowerneck -17.92925934697379 -1.8870897513524407 -1.4556723557416653
upperneck 15.851004164934647 -1.9135327548589953 -1.3740825180605933
head 7.8020147814086025 -1.1350239949569532 -0.47140563298626065
rclavicle 1.5298839356898115E-15 -1.9536985168416657E-16
rhumerus -33.363262480160664 -30.23599776942695 -81.43939888735225
rradius 16.12141732899761
rwrist 16.561378654171527
rhand -19.984528405434997 25.78121164772721
rfingers 7.125019999999985
rthumb 6.387429179729884 -4.322962305161759
lclavicle 1.5318352567493165E-15 -9.017049163567573E-16
lhumerus -31.178598664911206 -3.5864936770829328 81.0381855648058
lradius 34.246423256338204
lwrist 11.52958414148188
lhand -28.83769699380248 26.703249418521928
lfingers 7.125020000000011
lthumb -2.231380884615911 56.74872356501494
rfemur -18.472321550391143 4.7195239478183435 24.974600185437872
rtibia 38.58612503344518
rfoot -8.249573355747314 -7.9791513660457465
rtoes 2.813028859318537
lfemur 1.9816571994400194 -3.8306313312874343 -22.67239616965834
ltibia 31.987712061405837
lfoot -10.49712972665714 -2.938275927820879
ltoes -5.680142885940672
66
root 0 0 0 -2.255444672783821 -0.8746489550655121 -0.0912889110036672
lowerback 10.649493967783297 -1.3261388943588641 -1.6164423129167418
upperback 0.10498675090681733 -1.8706333807206044 1.7489050299915252
thorax -5.795303317660526 -0.8891628024187801 2.960632641500492
lowerneck -17.8491791685299 -1.9146470894811298 -1.2267738775061943
upperneck 15.555106807590894 -1.9353097616155914 -1.5777307142196173
head 7.735960867384116 -1.154589256770954 -0.5774711324301822
rclavicle 1.2888931096072658E-15 -6.443478842514267E-16
rhumerus -33.03520385298245 -30.02215914911964 -81.33635242146
rradius 16.352254260934565
rwrist 16.72449785255434
rhand -19.942897536911783 25.92074398672885
rfingers 7.125019999999985
rthumb 6.427054024942113 -4.177269088313267
lclavicle 1.4721053836782377E-15 -1.211547768878403E-15
lhumerus -30.990981386531406 -3.5010811619302937 81.3881929952233
lradius 33.81193311769544
lwrist 11.141615376240278
lhand -28.721812104305094 26.488875340712845
lfingers 7.125020000000012
lthumb -2.115894883502744 56.52028346580258
rfemur -17.608595022978186 4.838342023597368 25.648151204756637
rtibia 39.28846163267889
rfoot -8.343592400490559 -7.779506834184941
rtoes 3.327375930482252
lfemur -2.3720172617419983 -1.941510224348038 -21.561972696627816
ltibia 35.45725449641566
lfoot -7.193888444738021 -4.84026046201949
ltoes -5.270054282109015
